<?xml version="1.0" encoding="utf-8"?>
<!-- Generator: Adobe Illustrator 16.0.0, SVG Export Plug-In . SVG Version: 6.00 Build 0)  -->
<!DOCTYPE svg PUBLIC "-//W3C//DTD SVG 1.1//EN" "http://www.w3.org/Graphics/SVG/1.1/DTD/svg11.dtd">
<svg version="1.1" id="Capa_1" xmlns="http://www.w3.org/2000/svg" xmlns:xlink="http://www.w3.org/1999/xlink" x="0px" y="0px"
	 width="40px" height="40px" viewBox="0 0 40 40" enable-background="new 0 0 40 40" xml:space="preserve">
<g>
	<path fill="#76B6F6" d="M29.012,19.682c-0.217,4.146-1.932,7.029-5.353,8.854c-0.541,0.289-1.127,0.135-1.379-0.334
		c-0.264-0.489-0.082-1.038,0.512-1.357c1.109-0.596,2.052-1.367,2.809-2.385c2.754-3.701,1.432-9.213-2.714-11.25
		c-3.401-1.672-7.262-0.755-9.573,2.257c-0.207,0.271-0.483,0.544-0.789,0.675c-0.357,0.153-0.724,0.002-0.979-0.334
		c-0.302-0.398-0.247-0.813,0.024-1.16c0.467-0.597,0.934-1.211,1.496-1.711c5.215-4.638,13.334-2.425,15.447,4.215
		C28.801,18.057,28.887,19.025,29.012,19.682z"/>
	<path fill="#76B6F6" d="M9.403,31.445c-2.295,0-4.59,0-6.885-0.002c-0.668,0-1.035-0.258-1.144-0.783
		c-0.095-0.465,0.161-0.926,0.612-1.049c0.207-0.057,0.428-0.08,0.643-0.08c4.543-0.004,9.087-0.004,13.63-0.004
		c0.49-0.002,0.938,0.084,1.162,0.587c0.288,0.646-0.163,1.28-0.948,1.325c-0.4,0.023-0.806,0.006-1.209,0.006
		C13.312,31.445,11.356,31.445,9.403,31.445z"/>
	<path fill="#76B6F6" d="M9.5,18.098c2.187,0,4.373,0,6.56,0c0.107,0,0.217-0.002,0.325,0c0.696,0.018,1.136,0.396,1.124,0.969
		c-0.01,0.548-0.447,0.931-1.113,0.931c-4.65,0.005-9.302,0.005-13.953,0c-0.651,0-1.094-0.392-1.106-0.942
		c-0.013-0.55,0.446-0.953,1.142-0.955C4.817,18.092,7.159,18.098,9.5,18.098z"/>
	<path fill="#76B6F6" d="M14.228,23.816c2.293,0,4.588-0.002,6.881,0c0.67,0.002,1.055,0.271,1.143,0.789
		c0.083,0.492-0.198,0.94-0.682,1.057c-0.164,0.039-0.338,0.052-0.508,0.052c-4.588,0.003-9.176,0.003-13.764,0.001
		c-0.65,0-1.018-0.224-1.141-0.674c-0.188-0.676,0.262-1.213,1.049-1.223c1.238-0.012,2.479-0.002,3.72-0.002
		C12.026,23.816,13.126,23.816,14.228,23.816z"/>
	<path fill="#76B6F6" d="M33.843,6.676c-0.063,0.115-0.136,0.385-0.309,0.561c-1.303,1.33-2.618,2.647-3.946,3.953
		c-0.315,0.312-0.717,0.428-1.149,0.189c-0.363-0.199-0.55-0.518-0.48-0.92c0.035-0.215,0.146-0.454,0.3-0.609
		c1.304-1.328,2.62-2.645,3.944-3.951c0.291-0.287,0.656-0.42,1.064-0.239C33.641,5.823,33.842,6.113,33.843,6.676z"/>
	<path fill="#76B6F6" d="M11.028,10.604c-0.191,0.26-0.336,0.545-0.563,0.737c-0.285,0.243-0.636,0.207-0.953,0.003
		c-0.115-0.074-0.232-0.156-0.33-0.253C7.919,9.832,6.653,8.575,5.399,7.309C4.805,6.707,4.927,5.93,5.64,5.645
		c0.42-0.168,0.773-0.004,1.059,0.276c1.313,1.296,2.619,2.601,3.91,3.92C10.78,10.016,10.856,10.285,11.028,10.604z"/>
	<path fill="#76B6F6" d="M29.039,28.502c0.144,0.088,0.427,0.193,0.625,0.389c1.284,1.262,2.555,2.535,3.819,3.813
		c0.453,0.459,0.478,1.071,0.088,1.453c-0.383,0.374-0.955,0.354-1.412-0.095c-1.305-1.285-2.598-2.582-3.885-3.881
		c-0.301-0.305-0.449-0.675-0.26-1.101C28.185,28.707,28.483,28.518,29.039,28.502z"/>
	<path fill="#76B6F6" d="M20.389,36.243c0,0.899,0.007,1.801-0.004,2.7c-0.006,0.527-0.25,0.861-0.669,1
		c-0.424,0.14-0.786,0.019-1.016-0.334c-0.137-0.204-0.203-0.49-0.207-0.742c-0.016-1.783-0.01-3.567-0.008-5.352
		c0.002-0.468,0.153-0.858,0.627-1.035c0.428-0.157,0.822-0.053,1.062,0.324c0.14,0.219,0.197,0.521,0.205,0.785
		C20.403,34.475,20.389,35.359,20.389,36.243z"/>
	<path fill="#76B6F6" d="M18.485,3.766c0.002-0.916-0.01-1.83,0.006-2.746c0.008-0.447,0.189-0.805,0.658-0.961
		c0.426-0.144,0.785-0.021,1.019,0.328c0.137,0.204,0.209,0.487,0.211,0.736c0.019,1.784,0.015,3.568,0.008,5.352
		c-0.003,0.655-0.381,1.098-0.933,1.121c-0.529,0.024-0.951-0.428-0.963-1.085C18.473,5.596,18.485,4.68,18.485,3.766z"/>
	<path fill="#76B6F6" d="M35.61,19.055c0.931,0,1.86-0.006,2.791,0.004c0.453,0.004,0.817,0.183,0.975,0.639
		c0.141,0.408,0.048,0.789-0.313,1.023c-0.207,0.135-0.488,0.215-0.734,0.217c-1.799,0.019-3.598,0.015-5.397,0.006
		c-0.649-0.002-1.095-0.406-1.088-0.957c0.007-0.527,0.438-0.918,1.07-0.928C33.812,19.044,34.71,19.055,35.61,19.055z"/>
</g>
</svg>
