<?xml version="1.0" encoding="utf-8"?>
<!-- Generator: Adobe Illustrator 16.0.0, SVG Export Plug-In . SVG Version: 6.00 Build 0)  -->
<!DOCTYPE svg PUBLIC "-//W3C//DTD SVG 1.1//EN" "http://www.w3.org/Graphics/SVG/1.1/DTD/svg11.dtd">
<svg version="1.1" id="Capa_1" xmlns="http://www.w3.org/2000/svg" xmlns:xlink="http://www.w3.org/1999/xlink" x="0px" y="0px"
	 width="512px" height="512px" viewBox="0 0 512 512" enable-background="new 0 0 512 512" xml:space="preserve">
<g id="图层_2">
	<g>
		<path fill="#FFFFFF" d="M48.042,357.117c0.659-1.189,1.495-3.883,3.247-5.676c11.752-12.015,23.633-23.908,35.619-35.689
			c4.631-4.553,10.756-4.471,14.859-0.275c4.101,4.193,3.993,10.15-0.628,14.828c-11.696,11.836-23.516,23.551-35.297,35.301
			c-3.477,3.467-7.574,4.262-12.006,2.264C49.935,366.111,48.163,362.82,48.042,357.117z"/>
		<path fill="#FFFFFF" d="M4.164,234.434c1.308-0.376,3.803-1.689,6.31-1.717c16.807-0.186,33.617-0.195,50.423-0.051
			c6.494,0.056,10.767,4.445,10.701,10.313c-0.065,5.866-4.354,10.001-10.93,10.042c-16.639,0.098-33.28,0.022-49.92,0.002
			c-4.91-0.008-8.369-2.343-10.09-6.89C-0.857,242.132,0.216,238.552,4.164,234.434z"/>
		<path fill="#FFFFFF" d="M59.908,116.877c1.191,0.659,3.883,1.495,5.676,3.247c12.016,11.752,23.909,23.633,35.691,35.619
			c4.552,4.631,4.47,10.756,0.274,14.858c-4.194,4.102-10.15,3.994-14.829-0.627c-11.835-11.696-23.549-23.516-35.301-35.297
			c-3.466-3.477-4.261-7.574-2.264-12.006C50.914,118.77,54.205,116.998,59.908,116.877z"/>
		<path fill="#FFFFFF" d="M182.417,73.048c0.376,1.308,1.689,3.802,1.717,6.309c0.186,16.807,0.195,33.618,0.051,50.424
			c-0.056,6.494-4.446,10.767-10.313,10.701c-5.866-0.065-10.001-4.353-10.042-10.929c-0.099-16.639-0.023-33.279-0.003-49.92
			c0.008-4.909,2.343-8.369,6.889-10.09C174.718,68.027,178.298,69.1,182.417,73.048z"/>
		<path fill="#FFFFFF" d="M194.673,304.915c-5.711-54.438,32.855-102.485,84.013-111.579
			c49.638-8.824,101.246,19.166,116.849,72.182c8.944-0.662,17.799-2.051,26.616-1.854c48.097,1.074,86.222,38.203,89.638,86.852
			c3.209,45.689-30.526,87.98-76.641,95.824c-5.607,0.957-11.387,1.248-17.086,1.256c-70.372,0.082-140.742,0.055-211.113,0.051
			c-38.623-0.002-69.22-26.58-73.52-63.854c-4.24-36.748,20.324-69.887,58.011-78.249
			C192.417,305.326,193.407,305.16,194.673,304.915z M219.734,324.916c-4.527,0-8.725,0.148-12.912-0.023
			c-28.78-1.174-53.261,22.213-53.313,50.994c-0.051,28.463,22.935,51.318,51.954,51.35c70.203,0.076,140.406,0.039,210.611-0.008
			c4.363-0.002,8.748-0.271,13.088-0.75c39.354-4.348,68.594-43.973,61.229-82.895c-8.813-46.572-55.635-71.838-99.479-53.68
			c-3.551,1.471-7.104,2.934-11.525,4.758c-1.854-26.282-10.969-48.719-31.84-64.94c-20.969-16.298-44.729-21.122-70.498-15.07
			C237.688,223.894,201.21,268.003,219.734,324.916z"/>
		<path fill="#FFFFFF" d="M112.433,240.605c1.055,25.102,10.739,42.324,29.346,54.678c2.628,1.744,5.236,4.422,6.395,7.264
			c1.623,3.98,0.188,8.021-3.465,10.719c-3.768,2.782-7.772,2.829-11.793,0.41c-22.569-13.584-36.361-33.407-39.88-59.423
			c-6.028-44.548,22.809-83.936,67.086-91.959c24.143-4.375,45.992,1.825,65.288,16.933c5.653,4.427,6.824,10.56,3.138,15.358
			c-3.817,4.968-10.051,5.184-15.991,0.553c-34.369-26.795-83.69-12.141-96.892,28.975
			C113.686,230.272,113.135,236.889,112.433,240.605z"/>
		<path fill="#FFFFFF" d="M300.059,128.743c-0.66,1.19-1.494,3.883-3.247,5.675c-11.753,12.017-23.634,23.909-35.619,35.691
			c-4.632,4.552-10.757,4.469-14.858,0.274c-4.102-4.193-3.995-10.151,0.627-14.829c11.697-11.835,23.515-23.549,35.296-35.301
			c3.478-3.466,7.574-4.261,12.007-2.264C298.166,119.749,299.938,123.039,300.059,128.743z"/>
	</g>
</g>
</svg>
