<?xml version="1.0" encoding="utf-8"?>
<!-- Generator: Adobe Illustrator 16.0.0, SVG Export Plug-In . SVG Version: 6.00 Build 0)  -->
<!DOCTYPE svg PUBLIC "-//W3C//DTD SVG 1.1//EN" "http://www.w3.org/Graphics/SVG/1.1/DTD/svg11.dtd">
<svg version="1.1" id="Layer_1" xmlns="http://www.w3.org/2000/svg" xmlns:xlink="http://www.w3.org/1999/xlink" x="0px" y="0px"
	 width="512px" height="512px" viewBox="0 0 512 512" enable-background="new 0 0 512 512" xml:space="preserve">
<g>
	<path fill-rule="evenodd" clip-rule="evenodd" fill="#FFFFFF" d="M512,77.982c-0.592,1.491-1.302,2.947-1.759,4.479
		c-8.036,26.929-34.979,43.109-62.336,37.068c-3.815-0.843-5.25,0.275-6.896,3.305c-24.377,44.884-48.837,89.725-73.35,134.535
		c-1.416,2.589-1.925,4.171,0.594,6.76c15.412,15.841,20.236,34.641,12.98,55.571c-6.977,20.126-21.724,32.279-42.798,35.098
		c-22.549,3.016-40.294-5.822-52.811-24.916c-0.358-0.546-0.762-1.063-1.422-1.978c-12.782,3.97-25.598,7.956-38.417,11.929
		c-23.505,7.282-46.988,14.637-70.546,21.744c-3.322,1.002-4.305,2.363-4.333,5.817c-0.29,35.056-34.995,60.132-68.724,49.626
		c-3.463-1.079-5.216-0.613-7.355,2.316c-12.079,16.543-24.388,32.918-36.634,49.339c-1.191,1.599-2.348,3.266-3.77,4.645
		c-3.831,3.715-9.663,4.038-13.688,0.926c-4.336-3.353-5.707-9.158-2.694-13.831c3.242-5.027,6.981-9.737,10.554-14.549
		c10.318-13.892,20.662-27.765,31.25-41.985c-12.747-13.992-17.945-30.232-14.135-48.805c2.872-13.999,10.557-24.983,22.315-33.104
		c21.527-14.865,58.193-13.555,77.893,20.242c37.189-11.521,74.466-23.07,110.983-34.385c1.23-7.78,1.494-15.229,3.652-22.08
		c8.308-26.368,34.863-41.327,62.368-35.467c3.089,0.658,4.354,0.098,5.793-2.548c24.64-45.312,49.364-90.578,74.129-135.822
		c1.374-2.511,1.442-3.988-0.845-6.342c-16.032-16.491-20.69-36.004-12.339-57.416c8.28-21.232,24.89-32.406,47.55-33.919
		c23.205-1.549,45.678,14.614,52.77,37.3c0.576,1.846,1.341,3.632,2.018,5.445C512,63.982,512,70.982,512,77.982z M363,302.46
		c0.044-17.809-14.128-32.238-31.732-32.309c-17.592-0.071-32.07,14.339-32.151,31.998c-0.08,17.596,14.388,32.02,32.079,31.984
		C348.707,334.098,362.957,319.907,363,302.46z M117.973,398.129c17.672-0.123,32.054-14.682,31.857-32.25
		c-0.196-17.505-14.994-31.959-32.482-31.728c-17.375,0.23-31.508,14.627-31.504,32.089
		C85.849,383.93,100.279,398.253,117.973,398.129z M491,67.739c0.045-17.812-14.097-32.135-31.795-32.203
		c-17.614-0.067-32.128,14.403-32.104,32.006c0.025,17.604,14.563,32.043,32.158,31.936C476.801,99.372,490.956,85.217,491,67.739z"
		/>
	<path fill-rule="evenodd" clip-rule="evenodd" fill="#FFFFFF" d="M0,11.982c4.386-5.958,8.132-7.666,13.358-6.091
		c5.14,1.549,7.616,5.727,7.633,13.095C21.021,31.975,21,44.962,21,58.764c7.341,0,14.438-0.147,21.526,0.045
		c6.039,0.165,10.444,4.854,10.385,10.588c-0.06,5.724-4.492,10.286-10.543,10.532c-4.658,0.19-9.329,0.049-13.995,0.054
		c-2.29,0.002-4.58,0-7.117,0c0,14.364,0,28.266,0,42.753c6.67,0,13.123-0.046,19.575,0.012c7.263,0.065,11.969,4.182,12.082,10.452
		c0.114,6.359-4.854,10.726-12.315,10.777c-5.998,0.042-11.996,0.035-17.993,0.065c-0.312,0.002-0.623,0.153-1.268,0.323
		c0,13.822,0,27.73,0,42.429c7.226,0,14.501-0.182,21.763,0.061c5.297,0.177,9.293,4.388,9.785,9.618
		c0.468,4.972-3.097,10.021-8.091,11.185c-1.595,0.371-3.308,0.304-4.967,0.313c-6.12,0.032-12.239,0.013-18.565,0.013
		c0,14.396,0,28.295,0,42.751c6.374,0,12.494-0.019,18.614,0.005c8.104,0.03,12.995,3.988,13.034,10.506
		c0.04,6.556-4.927,10.711-12.871,10.734c-6.137,0.019-12.275,0.004-18.723,0.004c0,71.061,0,141.777,0,213.168
		c2.137,0,4.232,0,6.328,0c152.462,0,304.924-0.004,457.386,0.026c2.646,0.001,5.359,0.106,7.92,0.691
		c4.807,1.098,7.933,5.397,7.879,10.226c-0.054,4.844-3.255,8.977-8.095,10.075c-2.087,0.474-4.287,0.624-6.436,0.624
		c-157.461,0.027-314.922,0.015-472.382,0.067C7.994,506.862,3.077,505.44,0,499.982C0,337.315,0,174.649,0,11.982z"/>
</g>
</svg>
