<?xml version="1.0" encoding="utf-8"?>
<!-- Generator: Adobe Illustrator 16.0.0, SVG Export Plug-In . SVG Version: 6.00 Build 0)  -->
<!DOCTYPE svg PUBLIC "-//W3C//DTD SVG 1.1//EN" "http://www.w3.org/Graphics/SVG/1.1/DTD/svg11.dtd">
<svg version="1.1" id="Layer_1" xmlns="http://www.w3.org/2000/svg" xmlns:xlink="http://www.w3.org/1999/xlink" x="0px" y="0px"
	 width="96px" height="96px" viewBox="0 0 96 96" enable-background="new 0 0 96 96" xml:space="preserve">
<path fill-rule="evenodd" clip-rule="evenodd" fill="#0CB266" d="M49.875,96c-1.25,0-2.5,0-3.75,0
	c-0.142-0.056-0.279-0.145-0.425-0.162c-8.307-0.988-14.906-7.681-15.941-15.694c-0.078-0.6-0.227-1.015-0.972-1.104
	c-0.6-0.072-1.18-0.385-1.749-0.637c-8.951-3.961-14.466-10.641-15.604-20.463c-0.472-4.076-0.265-8.23-0.364-12.35
	c-0.01-0.396-0.001-0.795-0.001-1.297c-2.483,0-4.872,0-7.309,0c0-2.491,0-4.878,0-7.356c2.435,0,4.824,0,7.245,0
	c0.152-1.728,0.237-3.374,0.452-5.005c0.919-6.986,3.646-13.224,8.17-18.597C25.557,6.29,33.095,1.946,42.237,0.501
	c1.29-0.204,2.591-0.336,3.888-0.501c1.25,0,2.5,0,3.75,0c0.337,0.052,0.672,0.131,1.01,0.152c3.008,0.187,5.933,0.804,8.782,1.755
	c5.323,1.775,10.017,4.619,14.032,8.539c5.492,5.361,9.033,11.815,10.488,19.354c0.447,2.313,0.592,4.686,0.891,7.161
	c2.352,0,4.765,0,7.134,0c0,2.512,0,4.898,0,7.355c-2.444,0-4.809,0-7.28,0c0,0.404,0,0.737,0,1.071
	c0,2.592,0.004,5.185-0.002,7.777c-0.006,2.978-0.287,5.923-1.111,8.796c-2.469,8.615-8.314,13.99-16.496,17.069
	c-0.678,0.255-0.99,0.492-1.111,1.207c-1.212,7.164-5.245,12.057-12.019,14.641C52.813,95.405,51.317,95.634,49.875,96z
	 M30.379,71.805c2.999-7.494,8.268-12.101,16.286-12.597c9.282-0.574,15.454,4.125,18.979,12.556
	c0.166-0.057,0.316-0.096,0.457-0.157c7.167-3.176,11.092-8.652,11.338-16.508c0.188-5.992,0.098-11.993,0.092-17.99
	c-0.004-3.17-0.432-6.295-1.449-9.305c-2.416-7.15-6.85-12.7-13.4-16.471c-6.586-3.792-13.664-4.812-21.061-3.22
	c-6.462,1.391-11.866,4.687-16.135,9.74c-4.242,5.021-6.692,10.831-6.898,17.421c-0.189,6.055-0.132,12.118-0.105,18.177
	c0.007,1.677,0.163,3.378,0.477,5.024C20.216,65.063,24.32,69.252,30.379,71.805z M47.999,62.796
	c-2.051,0.001-3.711,1.659-3.691,3.689c0.019,1.992,1.657,3.63,3.647,3.648c2.042,0.019,3.721-1.622,3.739-3.651
	C51.71,64.451,50.051,62.795,47.999,62.796z M48.035,92.279c2.043-0.015,3.706-1.709,3.655-3.724
	c-0.05-2.005-1.685-3.612-3.679-3.617c-2.032-0.005-3.712,1.667-3.704,3.688C44.316,90.661,45.981,92.294,48.035,92.279z
	 M42.07,83.113c0.018-2.062-1.603-3.709-3.653-3.715c-2.028-0.005-3.708,1.671-3.701,3.692c0.006,1.972,1.643,3.629,3.632,3.678
	C40.359,86.818,42.052,85.155,42.07,83.113z M53.93,83.115c0.02,2.042,1.715,3.704,3.725,3.653c1.99-0.051,3.625-1.709,3.631-3.681
	c0.004-2.021-1.677-3.696-3.705-3.689C55.53,79.406,53.911,81.055,53.93,83.115z M42.066,72.12c0.063-2.059-1.495-3.721-3.565-3.805
	c-1.985-0.08-3.739,1.593-3.785,3.61c-0.046,2.008,1.602,3.709,3.64,3.761C40.337,75.735,42.005,74.133,42.066,72.12z
	 M53.932,72.041c0.022,2.018,1.639,3.641,3.633,3.647c2.023,0.007,3.715-1.667,3.721-3.684c0.006-2.007-1.712-3.718-3.707-3.692
	C55.526,68.338,53.909,69.992,53.932,72.041z"/>
<path fill-rule="evenodd" clip-rule="evenodd" fill="#0CB266" d="M44.229,42.304c0.303,5.177-2.714,10.335-7.151,12.141
	c-2.028,0.825-4.127,0.945-6.244,0.453c-2.465-0.574-4.021-2.203-4.8-4.542c-1.113-3.343-1.189-6.753-0.179-10.125
	c1.167-3.898,3.935-6.06,7.897-6.612c1.432-0.2,2.946-0.197,4.371,0.035c3.138,0.51,5.182,2.702,5.735,5.872
	C44.02,40.445,44.108,41.377,44.229,42.304z"/>
<path fill-rule="evenodd" clip-rule="evenodd" fill="#0CB266" d="M70.887,44.961c-0.275,1.355-0.46,3.146-1.013,4.815
	c-1.196,3.611-3.616,5.702-7.972,5.147c-5.939-0.757-9.906-5.012-10.113-10.995c-0.154-4.443,2.787-8.994,6.569-10.161
	c5.468-1.688,11.661,2.361,12.321,8.068C70.783,42.732,70.801,43.639,70.887,44.961z"/>
</svg>
