<?xml version="1.0" encoding="utf-8"?>
<!-- Generator: Adobe Illustrator 16.0.0, SVG Export Plug-In . SVG Version: 6.00 Build 0)  -->
<!DOCTYPE svg PUBLIC "-//W3C//DTD SVG 1.1//EN" "http://www.w3.org/Graphics/SVG/1.1/DTD/svg11.dtd">
<svg version="1.1" id="Layer_1" xmlns="http://www.w3.org/2000/svg" xmlns:xlink="http://www.w3.org/1999/xlink" x="0px" y="0px"
	 width="96px" height="96px" viewBox="0 0 96 96" enable-background="new 0 0 96 96" xml:space="preserve">
<g>
	<path fill="#0CB266" d="M43.875,0c2.75,0,5.5,0,8.25,0c0.367,0.059,0.73,0.149,1.1,0.17c6.859,0.388,13.59,1.485,20.074,3.813
		c4.348,1.561,8.473,3.552,11.774,6.902c1.739,1.765,3.065,3.781,3.435,6.303c0.487,3.344-0.889,6.036-3.031,8.422
		c-0.418,0.465-0.557,0.902-0.554,1.492c0.019,3.625,0.075,7.251-0.021,10.874c-0.041,1.55,0.322,2.766,1.338,3.981
		c1.705,2.043,2.683,4.419,2.283,7.188c-0.297,2.074-1.155,3.896-2.58,5.405c-0.764,0.81-1.055,1.634-1.036,2.745
		c0.063,4.029,0.012,8.063,0.046,12.092c0.004,0.454,0.208,0.953,0.451,1.35c0.621,1.007,1.382,1.933,1.974,2.953
		c1.636,2.824,1.625,5.688,0.093,8.564c-1.439,2.703-3.646,4.658-6.174,6.271c-5.568,3.556-11.781,5.354-18.207,6.525
		C61.068,95.423,59.029,95.688,57,96c-6,0-12,0-18,0c-0.269-0.063-0.535-0.15-0.807-0.182c-6.421-0.713-12.685-2.066-18.621-4.687
		c-3.862-1.705-7.45-3.827-10.042-7.284c-1.464-1.955-2.308-4.121-2.097-6.625c0.214-2.554,1.427-4.602,3.079-6.473
		c0.311-0.354,0.527-0.92,0.532-1.391c0.042-3.779-0.04-7.563,0.055-11.34c0.039-1.549-0.324-2.766-1.338-3.979
		c-1.613-1.933-2.589-4.175-2.323-6.813c0.25-2.475,1.391-4.488,3.017-6.3c0.304-0.339,0.582-0.85,0.586-1.284
		c0.043-4.279,0.035-8.559,0.01-12.839c-0.002-0.33-0.182-0.694-0.374-0.979c-0.313-0.463-0.71-0.87-1.061-1.308
		c-2.941-3.671-2.926-8.38-0.035-12.089c2.043-2.621,4.652-4.514,7.557-6.02c6.578-3.409,13.668-5.022,20.971-5.844
		C40.029,0.352,41.954,0.188,43.875,0z M47.97,29.678c3.422-0.265,6.856-0.431,10.264-0.816c5.674-0.642,11.173-2.01,16.342-4.504
		c2.197-1.061,4.316-2.275,5.892-4.217c0.991-1.222,1.046-2.19-0.028-3.345c-0.903-0.973-1.914-1.904-3.031-2.611
		C71.668,10.546,65.221,9,58.598,8.083C52.855,7.287,47.083,7.21,41.303,7.671c-6.131,0.489-12.117,1.636-17.831,3.972
		c-2.638,1.079-5.169,2.369-7.257,4.37c-1.866,1.789-1.855,3.122,0.006,4.908c0.068,0.065,0.138,0.127,0.208,0.189
		c2.782,2.486,6.125,3.94,9.593,5.126C33.129,28.668,40.488,29.493,47.97,29.678z M48.088,44.159
		c-1.195,1.45-2.21,2.633-3.172,3.857c-2.627,3.343-5.052,6.82-6.791,10.722c-2.207,4.951-1.212,9.707,2.686,12.727
		c2.714,2.104,5.839,2.732,9.193,2.213c7.025-1.09,10.764-7.797,8.323-13.517c-1.106-2.593-2.474-5.108-4.009-7.474
		C52.439,49.797,50.259,47.102,48.088,44.159z"/>
	<path fill="#0CB266" d="M33.14,22.146c-1.998-0.044-3.961-0.337-5.713-1.433c-2.073-1.296-2.136-3.327,0.009-4.481
		c3.802-2.045,7.74-2.055,11.55-0.025c2.19,1.167,2.132,3.225,0.014,4.529C37.214,21.836,35.217,22.12,33.14,22.146z"/>
	<path fill="#0CB266" d="M46.759,49.886c-0.429,1.394-0.859,2.784-1.285,4.179c-0.938,3.065-1.973,6.106-2.202,9.345
		c-0.169,2.391,0.457,4.623,1.318,7.006c-1.74-0.841-2.921-2.041-3.758-3.601c-1.264-2.354-1.249-4.76-0.01-7.08
		c1.335-2.498,2.819-4.918,4.24-7.369c0.497-0.857,0.998-1.713,1.498-2.568C46.626,49.826,46.692,49.855,46.759,49.886z"/>
</g>
</svg>
