<?xml version="1.0" encoding="utf-8"?>
<!-- Generator: Adobe Illustrator 16.0.0, SVG Export Plug-In . SVG Version: 6.00 Build 0)  -->
<!DOCTYPE svg PUBLIC "-//W3C//DTD SVG 1.1//EN" "http://www.w3.org/Graphics/SVG/1.1/DTD/svg11.dtd">
<svg version="1.1" id="Layer_1" xmlns="http://www.w3.org/2000/svg" xmlns:xlink="http://www.w3.org/1999/xlink" x="0px" y="0px"
	 width="96px" height="96px" viewBox="0 0 96 96" enable-background="new 0 0 96 96" xml:space="preserve">
<path fill="#0CB266" d="M0,14.438c0-1,0-2,0-3c0.062-0.267,0.137-0.531,0.184-0.8c0.78-4.475,3.235-7.643,7.455-9.34
	C9.039,0.734,10.543,0.425,12,0c4.813,0,9.625,0,14.438,0c0.173,0.065,0.347,0.128,0.52,0.195c2.116,0.821,3.045,2.857,2.25,4.927
	c-0.54,1.404-1.894,2.233-3.77,2.241c-3.843,0.016-7.686-0.015-11.529,0.021c-0.833,0.008-1.688,0.126-2.49,0.348
	C8.716,8.48,7.494,10.064,7.407,12.79c-0.085,2.693,1.077,4.373,3.761,5.226c0.876,0.279,1.833,0.416,2.755,0.423
	c5.093,0.04,10.186-0.017,15.278,0.028c6.146,0.055,10.806,2.641,13.646,8.219c0.043,0.085,0.135,0.146,0.342,0.365
	c-0.734-4.062-1.424-7.929-2.159-11.788c-0.037-0.196-0.459-0.44-0.713-0.454c-0.997-0.053-2,0.002-2.998-0.039
	c-0.252-0.011-0.676-0.185-0.715-0.355c-0.532-2.301-1.009-4.614-1.513-6.985c8.644,0,17.185,0,25.819,0
	c-0.502,2.358-0.975,4.642-1.496,6.914c-0.044,0.188-0.426,0.411-0.66,0.423c-0.966,0.048-1.938,0.049-2.904,0.01
	c-0.593-0.024-0.861,0.114-0.971,0.777c-0.438,2.679-0.953,5.344-1.439,8.015c-0.102,0.552-0.211,1.104-0.305,1.657
	c-0.094,0.546-0.174,1.094-0.259,1.641c0.204-0.076,0.276-0.173,0.332-0.279c2.591-5.056,6.767-7.817,12.396-8.036
	c5.429-0.21,10.869-0.075,16.306-0.098c0.53-0.002,1.063-0.018,1.589-0.088c3.785-0.504,5.727-3.208,4.966-6.901
	c-0.435-2.115-2.231-3.643-4.903-3.948c-1.543-0.176-3.115-0.129-4.675-0.142c-2.968-0.026-5.938,0.052-8.901-0.056
	c-2.52-0.092-4.043-2.496-3.25-4.863C67.199,1.069,68.3,0.45,69.563,0C74.375,0,79.188,0,84,0c0.236,0.063,0.469,0.14,0.708,0.185
	c4.247,0.798,7.826,2.655,9.842,6.662c0.712,1.416,0.979,3.055,1.45,4.591c0,1,0,2,0,3c-0.063,0.268-0.141,0.534-0.188,0.805
	c-0.349,2.033-1.054,3.919-2.359,5.536c-2.787,3.445-6.543,4.952-10.842,5.051c-5.215,0.12-10.437,0.025-15.653,0.03
	c-4.976,0.004-7.872,2.875-7.867,7.844c0.001,0.478,0.199,1.033,0.485,1.42c3.318,4.494,4.078,9.346,2.145,14.603
	c-0.095,0.258-0.174,0.521-0.271,0.813c1.155,0.42,2.272,0.806,3.377,1.229c4.12,1.59,8.095,3.449,11.542,6.281
	c3.214,2.639,5.044,5.813,4.898,10.188c-0.209,6.397-0.054,12.81-0.054,19.215c0,0.366,0,0.733,0,1.121
	c0.242,0.053,0.39,0.09,0.538,0.114c2.377,0.414,3.671,2.64,2.873,4.912c-0.484,1.381-1.59,1.99-2.875,2.398
	c-22.563,0-45.125,0-67.688,0c-0.248-0.119-0.496-0.239-0.744-0.355c-1.947-0.924-2.753-3.009-1.836-4.934
	c0.627-1.316,1.781-1.947,3.304-2.093c0-0.413,0-0.78,0-1.147c0-6.809,0.007-13.617-0.006-20.425
	c-0.003-1.493,0.243-2.909,0.928-4.251c1.245-2.436,3.198-4.209,5.369-5.77c3.605-2.59,7.64-4.325,11.786-5.828
	c0.575-0.209,1.147-0.424,1.714-0.633c-2.282-5.702-1.682-10.936,2.108-15.74c0.141-0.178,0.22-0.443,0.236-0.675
	c0.354-4.917-2.769-8.275-7.709-8.289c-3.779-0.011-7.558,0.018-11.337-0.01c-2.151-0.016-4.332,0.093-6.447-0.212
	c-4.162-0.601-7.714-2.433-9.772-6.286C0.854,17.848,0.538,16.083,0,14.438z M40.645,44.324c0.011,4.063,3.383,7.423,7.393,7.365
	c4.05-0.057,7.294-3.314,7.317-7.349c0.022-4.059-3.289-7.396-7.348-7.403C43.95,36.931,40.634,40.259,40.645,44.324z"/>
</svg>
