<?xml version="1.0" encoding="utf-8"?>
<!-- Generator: Adobe Illustrator 16.0.0, SVG Export Plug-In . SVG Version: 6.00 Build 0)  -->
<!DOCTYPE svg PUBLIC "-//W3C//DTD SVG 1.1//EN" "http://www.w3.org/Graphics/SVG/1.1/DTD/svg11.dtd">
<svg version="1.1" id="Capa_1" xmlns="http://www.w3.org/2000/svg" xmlns:xlink="http://www.w3.org/1999/xlink" x="0px" y="0px"
	 width="512px" height="512px" viewBox="0 0 512 512" enable-background="new 0 0 512 512" xml:space="preserve">
<g>
	<path fill="#FFFFFF" d="M20.654,511.999c0-6.977,0-13.951,0-21.412c-7.069,0-13.685,0-20.654,0c0-7.244,0-14.012,0-21.352
		c6.494,0,13.219,0,20.471,0c0-156.693,0-312.823,0-469.236c7.276,0,14.013,0,21.325,0c0,156.277,0,312.398,0,468.977
		c157.091,0,313.61,0,470.132,0c0,7.004,0,14.008,0,21.012c-2.314,0.14-4.629,0.398-6.943,0.398
		c-151.971,0.021-303.938,0.018-455.908,0.018c-2.281,0-4.561,0-7.41,0c0,7.664,0,14.63,0,21.597
		C34.662,511.999,27.658,511.999,20.654,511.999z"/>
	<path fill="#FFFFFF" d="M84.69,276.843c0-52.502-0.002-105.004,0.002-157.505c0-9.341,3.634-13.031,12.938-13.055
		c12.333-0.032,24.667-0.015,37.001-0.006c10.481,0.007,14.088,3.594,14.089,14.13c0.01,89.503,0.006,179.006,0.006,268.508
		c0,15,0.023,30.002-0.009,45.002c-0.021,10.074-3.848,13.869-13.898,13.879c-12.334,0.012-24.667,0.02-37.001-0.002
		c-9.331-0.018-13.124-3.768-13.125-12.947C84.687,382.179,84.69,329.511,84.69,276.843z M106.156,127.837
		c0,99.677,0,198.807,0,298.277c7.005,0,13.725,0,20.669,0c0-99.582,0-198.822,0-298.277
		C119.826,127.837,113.208,127.837,106.156,127.837z"/>
	<path fill="#FFFFFF" d="M362.01,351.901c0,27.34,0.01,54.682-0.004,82.022c-0.004,10.291-3.57,13.863-13.795,13.871
		c-12.504,0.013-25.006,0.037-37.512-0.01c-8.457-0.031-12.707-4.162-12.711-12.507c-0.031-55.684-0.031-111.364,0-167.049
		c0.004-8.506,4.051-12.486,12.615-12.523c12.838-0.055,25.676-0.046,38.512-0.003c9.186,0.03,12.877,3.8,12.887,13.172
		C362.027,296.551,362.01,324.228,362.01,351.901z M340.594,277.196c-7.373,0-14.15,0-20.953,0c0,49.752,0,99.176,0,148.846
		c7.164,0,14.008,0,20.953,0C340.594,376.212,340.594,326.79,340.594,277.196z"/>
	<path fill="#FFFFFF" d="M255.29,383.792c0,17.004,0.029,34.004-0.012,51.006c-0.021,9.148-3.932,12.979-13.161,12.996
		c-12.668,0.023-25.337,0.039-38.005-0.008c-8.629-0.031-12.783-3.83-12.811-12.402c-0.114-34.502-0.115-69.008,0.001-103.512
		c0.028-8.322,4.123-12.09,12.464-12.127c13.001-0.059,26.003-0.061,39.004,0c8.659,0.039,12.478,3.863,12.504,12.539
		C255.327,349.454,255.29,366.623,255.29,383.792z M213.157,341.097c0,28.646,0,56.846,0,85.068c7.002,0,13.604,0,20.453,0
		c0-28.484,0-56.682,0-85.068C226.675,341.097,220.065,341.097,213.157,341.097z"/>
	<path fill="#FFFFFF" d="M468.902,394.722c0,13.166,0.033,26.33-0.012,39.496c-0.033,9.744-3.92,13.564-13.693,13.578
		c-12.5,0.016-24.998,0.029-37.498-0.006c-8.967-0.023-12.824-3.871-12.828-12.736c-0.01-27.164-0.012-54.328,0-81.494
		c0.004-8.49,3.934-12.559,12.496-12.627c12.832-0.1,25.666-0.088,38.496-0.006c9.002,0.057,12.979,4.137,13.021,13.299
		C468.949,367.724,468.902,381.222,468.902,394.722z M447.057,362.783c-7.045,0-13.758,0-20.699,0c0,21.263,0,42.163,0,63.304
		c7.035,0,13.754,0,20.699,0C447.057,404.831,447.057,383.94,447.057,362.783z"/>
</g>
</svg>
