<?xml version="1.0" encoding="utf-8"?>
<!-- Generator: Adobe Illustrator 16.0.0, SVG Export Plug-In . SVG Version: 6.00 Build 0)  -->
<!DOCTYPE svg PUBLIC "-//W3C//DTD SVG 1.1//EN" "http://www.w3.org/Graphics/SVG/1.1/DTD/svg11.dtd">
<svg version="1.1" id="Layer_1" xmlns="http://www.w3.org/2000/svg" xmlns:xlink="http://www.w3.org/1999/xlink" x="0px" y="0px"
	 width="96px" height="96px" viewBox="0 0 96 96" enable-background="new 0 0 96 96" xml:space="preserve">
<g>
	<path fill="#0CB266" d="M16.039,96c0.009-3.107-0.13-6.227,0.069-9.32c0.212-3.315,3.509-5.731,7.303-5.506
		c0,1.194,0,2.404,0,3.614c0,1.222,0,2.442,0,3.731c2.477,0,4.881,0,7.425,0c0-2.431,0-4.859,0-7.338c2.542,0,4.943,0,7.426,0
		c0,2.453,0,4.861,0,7.338c2.482,0,4.883,0,7.386,0c0-2.42,0-4.824,0-7.31c2.524,0,4.95,0,7.473,0c0,2.417,0,4.823,0,7.304
		c2.496,0,4.895,0,7.414,0c0-2.432,0-4.859,0-7.332c2.521,0,4.922,0,7.434,0c0,2.453,0,4.858,0,7.334c2.508,0,4.908,0,7.432,0
		c0-2.432,0-4.858,0-7.265c3.463-0.578,7.107,2.048,7.328,5.427c0.201,3.096,0.06,6.213,0.068,9.321C60.545,96,38.292,96,16.039,96z
		"/>
	<path fill="#0CB266" d="M56.621,0c-0.104,1.856-0.309,3.667-0.281,5.474c0.057,3.855,1.273,7.451,3.166,10.732
		c2.695,4.673,5.652,9.195,8.506,13.777c2.428,3.899,4.676,7.898,5.975,12.33c3.041,10.373,1.246,19.818-5.711,28.158
		c-2.516,3.016-5.67,5.219-9.364,6.609c-0.229,0.086-0.463,0.15-0.638,0.207c1.209-2.032,2.468-4.042,3.619-6.11
		c3.201-5.743,3.039-11.499,0.008-17.267c-1.647-3.137-3.271-6.288-4.811-9.478c-0.596-1.233-0.93-2.591-1.434-4.038
		c-2.611,3.195-2.787,6.925-2.604,10.967c-1.434-1.58-2.354-3.229-3.053-4.997c-1.805-4.586-2.308-9.38-1.958-14.249
		c0.245-3.396,0.75-6.773,1.159-10.342c-1.45,1.437-2.912,2.759-4.228,4.213c-4.921,5.438-8.357,11.672-9.761,18.922
		c-1.199,6.189-0.649,12.324,0.893,18.384c1.188,4.674,2.951,9.128,5.392,13.301c0.123,0.212,0.229,0.433,0.455,0.857
		c-1.236-0.455-2.301-0.8-3.328-1.233c-5.072-2.142-9.586-5.078-13.171-9.328c-3.979-4.719-5.823-10.174-5.72-16.328
		c0.192-11.511,4.728-21.316,11.876-30.056c6.66-8.141,14.75-14.607,23.804-19.901c0.352-0.206,0.715-0.392,1.076-0.581
		C56.543-0.004,56.611,0.001,56.621,0z"/>
</g>
</svg>
