<?xml version="1.0" encoding="utf-8"?>
<!-- Generator: Adobe Illustrator 16.0.0, SVG Export Plug-In . SVG Version: 6.00 Build 0)  -->
<!DOCTYPE svg PUBLIC "-//W3C//DTD SVG 1.1//EN" "http://www.w3.org/Graphics/SVG/1.1/DTD/svg11.dtd">
<svg version="1.1" id="Capa_1" xmlns="http://www.w3.org/2000/svg" xmlns:xlink="http://www.w3.org/1999/xlink" x="0px" y="0px"
	 width="512px" height="512px" viewBox="0 0 512 512" enable-background="new 0 0 512 512" xml:space="preserve">
<g>
	<path fill-rule="evenodd" clip-rule="evenodd" fill="#76B6F6" d="M42.767,511.984c0-14.12,0-28.241,0-42.896
		c-14.715,0-28.624,0-42.767,0c0-7.28,0-14.019,0-21.141c14.031,0,27.815,0,42.282,0c0-149.47,0-298.559,0-447.932
		c7.427,0,14.172,0,21.35,0c0,149.1,0,298.084,0,447.818c2.511,0,4.604,0,6.697,0c145.059,0,290.116,0,435.174,0.005
		c2.167,0,4.331,0.074,6.497,0.114c0,7.003,0,14.007,0,21.011c-2.164,0.027-4.33,0.079-6.496,0.079
		c-144.979,0.003-289.958,0.003-434.936,0.003c-2.113,0-4.226,0-6.791,0c0,14.689,0,28.814,0,42.938
		C56.774,511.984,49.771,511.984,42.767,511.984z"/>
	<path fill-rule="evenodd" clip-rule="evenodd" fill="#76B6F6" d="M407.764,241.343c2.445-1.619,4.508-2.976,6.561-4.344
		c15.941-10.624,31.862-21.278,47.83-31.861c6.021-3.991,12.238-3.099,15.862,2.094c3.59,5.142,2.104,11.378-3.948,15.437
		c-20.615,13.822-41.268,27.591-61.953,41.308c-6.505,4.313-11.783,3.211-16.783-3.442c-16.215-21.578-32.367-43.203-48.556-64.802
		c-0.983-1.313-2.056-2.56-3.45-4.289c-4.886,10.511-9.582,20.557-14.228,30.625c-13.522,29.316-27.149,58.585-40.444,88.005
		c-3.144,6.958-7.485,10.094-15.335,9.951c-21.331-0.391-42.686-0.578-64.007,0.025c-13.692,0.387-26.773-1.862-39.873-5.274
		c-20.935-5.452-41.951-10.586-62.93-15.863c-1.127-0.283-2.261-0.576-3.345-0.988c-5.603-2.129-8.449-7.289-7.031-12.666
		c1.489-5.642,6.739-9.046,12.708-7.624c15.864,3.776,31.666,7.812,47.492,11.746c11.304,2.81,22.597,5.665,33.918,8.401
		c2.241,0.542,4.59,0.889,6.89,0.896c22.838,0.064,45.677-0.047,68.514,0.128c3.562,0.027,5.206-1.164,6.663-4.341
		c18.731-40.832,37.615-81.595,56.46-122.374c0.628-1.358,1.253-2.72,1.898-4.072c4.87-10.213,13.685-11.103,20.556-2.002
		c10.143,13.43,20.216,26.912,30.314,40.374C390.145,217.845,398.734,229.303,407.764,241.343z"/>
	<path fill-rule="evenodd" clip-rule="evenodd" fill="#76B6F6" d="M363.217,332.747c-25.727,19.294-51.119,38.189-76.308,57.353
		c-4.922,3.744-9.643,4.884-15.718,3.63c-31.443-6.486-62.94-12.721-94.464-18.804c-2.395-0.463-5.605,0.229-7.662,1.569
		c-18.276,11.919-36.332,24.178-54.584,36.134c-2.516,1.647-5.734,2.989-8.664,3.064c-4.756,0.123-8.076-2.874-9.52-7.453
		c-1.474-4.677,0.043-8.676,3.881-11.481c5.106-3.731,10.455-7.135,15.719-10.648c15.378-10.267,30.8-20.466,46.125-30.809
		c4.091-2.762,8.077-3.764,13.131-2.719c31.633,6.539,63.313,12.853,95.033,18.957c2.516,0.483,6.006-0.418,8.092-1.962
		c24.92-18.42,49.656-37.088,74.447-55.68c8.139-6.104,10.258-6.191,18.837-1.042c33.405,20.047,66.818,40.082,100.218,60.141
		c1.707,1.024,3.501,2.021,4.928,3.373c3.877,3.679,4.287,9.327,1.22,13.661c-2.999,4.234-8.467,5.816-13.296,3.388
		c-4.155-2.09-8.067-4.668-12.065-7.066C422.867,368.541,393.173,350.721,363.217,332.747z"/>
</g>
</svg>
