<?xml version="1.0" encoding="utf-8"?>
<!-- Generator: Adobe Illustrator 16.0.0, SVG Export Plug-In . SVG Version: 6.00 Build 0)  -->
<!DOCTYPE svg PUBLIC "-//W3C//DTD SVG 1.1//EN" "http://www.w3.org/Graphics/SVG/1.1/DTD/svg11.dtd">
<svg version="1.1" id="Layer_1" xmlns="http://www.w3.org/2000/svg" xmlns:xlink="http://www.w3.org/1999/xlink" x="0px" y="0px"
	 width="10px" height="10px" viewBox="0 0 10 10" enable-background="new 0 0 10 10" xml:space="preserve">
<g>
	<path fill="#FFFFFF" d="M5.813,0.028c-0.111,0-0.201,0.089-0.201,0.201v3.986c0,0.112,0.09,0.201,0.201,0.201h3.986
		C9.91,4.417,10,4.327,10,4.215c0-1.022-0.372-2.006-1.049-2.772C8.156,0.545,7.012,0.028,5.813,0.028z M6.014,4.014V0.437
		C7.024,0.492,7.976,0.949,8.65,1.711c0.566,0.64,0.896,1.453,0.943,2.303H6.014z"/>
	<path fill="#FFFFFF" d="M9.018,5.461c0-0.112-0.089-0.201-0.201-0.201H4.711V1.152c0-0.112-0.089-0.201-0.201-0.201
		C2.022,0.951,0,2.974,0,5.461c0,2.486,2.022,4.51,4.51,4.51S9.018,7.947,9.018,5.461z M4.51,9.569
		c-2.264,0-4.108-1.844-4.108-4.108c0-2.197,1.734-3.998,3.907-4.104v4.102c0,0.112,0.089,0.201,0.201,0.201h4.101
		C8.506,7.834,6.707,9.569,4.51,9.569z"/>
</g>
</svg>
