<?xml version="1.0" encoding="utf-8"?>
<!-- Generator: Adobe Illustrator 16.0.0, SVG Export Plug-In . SVG Version: 6.00 Build 0)  -->
<!DOCTYPE svg PUBLIC "-//W3C//DTD SVG 1.1//EN" "http://www.w3.org/Graphics/SVG/1.1/DTD/svg11.dtd">
<svg version="1.1" id="Capa_1" xmlns="http://www.w3.org/2000/svg" xmlns:xlink="http://www.w3.org/1999/xlink" x="0px" y="0px"
	 width="10px" height="10px" viewBox="0 0 10 10" enable-background="new 0 0 10 10" xml:space="preserve">
<g>
	<path fill="#FFFFFF" d="M9.32,8.639c-0.13,0-0.25,0.037-0.354,0.1L6.214,5.984C6.209,5.98,6.204,5.977,6.199,5.972
		C6.414,5.706,6.545,5.368,6.545,5c0-0.368-0.13-0.705-0.346-0.971l1.877-1.876c0.201,0.153,0.453,0.245,0.725,0.245
		C9.463,2.397,10,1.86,10,1.199S9.463,0,8.801,0c-0.66,0-1.198,0.538-1.198,1.199c0,0.272,0.091,0.523,0.245,0.725L5.971,3.8
		C5.705,3.585,5.368,3.456,5,3.456S4.295,3.585,4.029,3.8L3.163,2.934C3.225,2.831,3.261,2.71,3.261,2.581
		c0-0.375-0.305-0.681-0.68-0.681S1.9,2.206,1.9,2.581s0.306,0.68,0.681,0.68c0.129,0,0.25-0.036,0.353-0.099L3.8,4.029
		C3.585,4.295,3.456,4.632,3.456,5c0,0.208,0.042,0.407,0.117,0.589L1.512,6.705c-0.157-0.19-0.394-0.313-0.659-0.313
		C0.383,6.393,0,6.775,0,7.246S0.383,8.1,0.853,8.1c0.471,0,0.853-0.383,0.853-0.854c0-0.09-0.014-0.176-0.039-0.256l2.061-1.117
		C4.006,6.278,4.473,6.545,5,6.545c0.059,0,0.118-0.004,0.175-0.011L5.39,7.5C5.166,7.611,5.011,7.844,5.011,8.11
		c0,0.375,0.305,0.681,0.681,0.681c0.375,0,0.68-0.306,0.68-0.681c0-0.37-0.297-0.673-0.665-0.681L5.491,6.464
		c0.177-0.06,0.339-0.149,0.48-0.265c0.005,0.005,0.009,0.01,0.013,0.015l2.754,2.753c-0.063,0.104-0.1,0.224-0.1,0.354
		C8.639,9.695,8.944,10,9.32,10C9.695,10,10,9.695,10,9.32C10,8.944,9.695,8.639,9.32,8.639z M0.853,7.775
		c-0.292,0-0.529-0.237-0.529-0.529c0-0.291,0.237-0.529,0.529-0.529c0.292,0,0.529,0.238,0.529,0.529
		C1.382,7.538,1.145,7.775,0.853,7.775z M6.047,8.11c0,0.196-0.159,0.356-0.355,0.356c-0.197,0-0.356-0.16-0.356-0.356
		s0.16-0.356,0.356-0.356C5.888,7.754,6.047,7.914,6.047,8.11z M8.801,0.324c0.482,0,0.875,0.392,0.875,0.875
		S9.283,2.073,8.801,2.073S7.927,1.681,7.927,1.199S8.318,0.324,8.801,0.324z M2.225,2.581c0-0.197,0.16-0.356,0.356-0.356
		c0.196,0,0.356,0.16,0.356,0.356c0,0.196-0.16,0.356-0.356,0.356C2.384,2.938,2.225,2.777,2.225,2.581z M5,6.221
		C4.327,6.221,3.78,5.673,3.78,5S4.327,3.78,5,3.78S6.221,4.327,6.221,5S5.673,6.221,5,6.221z M9.32,9.676
		c-0.197,0-0.357-0.16-0.357-0.355c0-0.197,0.16-0.357,0.357-0.357c0.195,0,0.355,0.16,0.355,0.357
		C9.676,9.516,9.516,9.676,9.32,9.676z"/>
	<path fill="#FFFFFF" d="M5,4.147c-0.089,0-0.162,0.072-0.162,0.162c0,0.089,0.073,0.162,0.162,0.162
		c0.292,0,0.529,0.237,0.529,0.529c0,0.089,0.072,0.162,0.162,0.162S5.854,5.089,5.854,5C5.854,4.53,5.47,4.147,5,4.147z"/>
	<path fill="#FFFFFF" d="M8.801,1.015c0.102,0,0.184,0.083,0.184,0.184c0,0.089,0.073,0.162,0.162,0.162
		c0.09,0,0.162-0.073,0.162-0.162c0-0.28-0.228-0.508-0.508-0.508c-0.089,0-0.162,0.073-0.162,0.162S8.712,1.015,8.801,1.015z"/>
</g>
</svg>
