<?xml version="1.0" encoding="utf-8"?>
<!-- Generator: Adobe Illustrator 16.0.0, SVG Export Plug-In . SVG Version: 6.00 Build 0)  -->
<!DOCTYPE svg PUBLIC "-//W3C//DTD SVG 1.1//EN" "http://www.w3.org/Graphics/SVG/1.1/DTD/svg11.dtd">
<svg version="1.1" id="Layer_1" xmlns="http://www.w3.org/2000/svg" xmlns:xlink="http://www.w3.org/1999/xlink" x="0px" y="0px"
	 width="512px" height="512px" viewBox="0 0 512 512" enable-background="new 0 0 512 512" xml:space="preserve">
<g>
	<path fill-rule="evenodd" clip-rule="evenodd" fill="#FFFFFF" d="M512,492.039c-3.174,6.045-8.359,7.577-14.882,7.569
		c-106.274-0.109-212.547-0.078-318.821-0.078c-54.209,0-108.419,0.025-162.629-0.064c-3.076-0.006-6.434-0.339-9.165-1.597
		c-4.588-2.113-5.902-6.396-5.375-11.306c2.162-20.16,4.309-40.319,6.43-60.481c3.494-33.221,6.954-66.442,10.447-99.661
		c3.789-36.03,7.604-72.055,11.396-108.084c3.531-33.549,7.034-67.101,10.575-100.65c1.203-11.402,2.368-22.812,3.772-34.19
		c0.798-6.47,4.552-9.745,11.063-9.77c20.954-0.083,41.91-0.08,62.865,0.003c6.245,0.024,10.385,3.782,11.038,9.925
		c3.72,35.031,7.358,70.071,11.047,105.106c1.945,18.479,3.939,36.954,5.894,55.264c102.517,0,204.583,0,306.65,0
		c15.135,0,30.274,0.226,45.4-0.105c6.49-0.142,11.28,1.754,14.295,7.589C512,331.687,512,411.863,512,492.039z M490.633,265.6
		c-114.416,0-228.414,0-342.749,0c7.471,70.952,14.909,141.59,22.34,212.17c107.133,0,213.651,0,320.409,0
		C490.633,407.033,490.633,336.593,490.633,265.6z M148.824,477.791C135.368,349.988,121.945,222.497,108.53,95.07
		c-15.265,0-29.854,0-44.748,0c-13.437,127.68-26.85,255.139-40.276,382.721C65.76,477.791,107.114,477.791,148.824,477.791z"/>
	<path fill-rule="evenodd" clip-rule="evenodd" fill="#FFFFFF" d="M312.664,97.454c-14.187,0.075-38.56-6.762-62.656-15.211
		c-17.685-6.201-35.435-12.279-53.386-17.64c-14.425-4.309-29.339-5.247-44.421-3.829c-8.24,0.775-13.547-4.187-12.425-11.53
		c0.423-2.77,2.318-6.314,4.617-7.644c28.865-16.694,59.465-28.01,93.333-28.027c21.001-0.011,41.093,4.999,60.85,11.745
		c17.895,6.11,35.71,12.553,53.879,17.735c22.089,6.301,44.362,5.218,66.349-1.423c1.432-0.432,2.85-0.912,4.294-1.29
		c5.807-1.518,10.753,0.47,13.142,5.247c2.504,5.006,1.242,10.708-4.121,13.862c-13.293,7.82-26.509,15.902-40.389,22.561
		C370.528,92.177,347.91,97.366,312.664,97.454z M368.85,68.211c-8.964-1.843-16.774-2.768-24.143-5.093
		c-19.922-6.29-39.658-13.163-59.461-19.826c-28.434-9.565-57.086-11.705-86.073-2.569c-0.963,0.304-1.854,0.833-2.061,0.928
		c18.289,6.21,36.847,12.344,55.287,18.815c21.806,7.653,43.652,14.878,67.089,15.526C336.097,76.451,352.178,74,368.85,68.211z"/>
	<path fill-rule="evenodd" clip-rule="evenodd" fill="#FFFFFF" d="M448.125,339.902c0,13.46,0.027,26.922-0.01,40.382
		c-0.024,8.724-4.063,12.761-12.85,12.772c-26.922,0.033-53.844,0.031-80.765,0c-8.673-0.01-12.935-4.08-12.966-12.79
		c-0.097-27.087-0.1-54.175,0.005-81.263c0.033-8.4,4.292-12.518,12.72-12.537c27.086-0.066,54.175-0.068,81.262,0
		c8.627,0.023,12.58,4.232,12.597,13.053C448.143,312.98,448.125,326.44,448.125,339.902z M363.521,308.192
		c0,21.283,0,42.273,0,63.188c21.262,0,42.125,0,63.135,0c0-21.253,0-42.109,0-63.188
		C405.443,308.192,384.572,308.192,363.521,308.192z"/>
	<path fill-rule="evenodd" clip-rule="evenodd" fill="#FFFFFF" d="M192.625,339.327c-0.001-13.46-0.031-26.923,0.01-40.382
		c0.026-8.178,4.037-12.439,12.148-12.465c27.419-0.092,54.839-0.09,82.259,0c7.584,0.025,12.035,4.039,12.092,11.6
		c0.211,27.75,0.203,55.503,0.025,83.253c-0.049,7.716-4.623,11.704-12.502,11.718c-27.253,0.045-54.507,0.053-81.761-0.006
		c-8.137-0.018-12.225-4.188-12.258-12.337C192.584,366.914,192.625,353.121,192.625,339.327z M214.126,308.144
		c0,21.459,0,42.305,0,63.314c21.239,0,42.103,0,63.065,0c0-21.296,0-42.274,0-63.314
		C256.012,308.144,235.263,308.144,214.126,308.144z"/>
</g>
</svg>
