<?xml version="1.0" encoding="utf-8"?>
<!-- Generator: Adobe Illustrator 16.0.0, SVG Export Plug-In . SVG Version: 6.00 Build 0)  -->
<!DOCTYPE svg PUBLIC "-//W3C//DTD SVG 1.1//EN" "http://www.w3.org/Graphics/SVG/1.1/DTD/svg11.dtd">
<svg version="1.1" id="Layer_1" xmlns="http://www.w3.org/2000/svg" xmlns:xlink="http://www.w3.org/1999/xlink" x="0px" y="0px"
	 width="96px" height="96px" viewBox="0 0 96 96" enable-background="new 0 0 96 96" xml:space="preserve">
<g>
	<path fill="#0CB266" d="M0.134,95.816c0-0.422,0-0.778,0-1.137c0-12.574,0.007-25.147-0.017-37.723
		c-0.002-0.803,0.224-1.227,0.965-1.598c7.239-3.619,14.455-7.286,21.679-10.938c0.289-0.146,0.587-0.272,0.988-0.457
		c0,3.925,0,7.733,0,11.725c7.836-3.959,15.537-7.853,23.342-11.796c0,3.95,0,7.764,0,11.771c7.793-3.939,15.46-7.814,23.288-11.77
		c0,9.188,0,18.183,0,27.178c0.068,0.003,0.137,0.007,0.205,0.01c1.551-16.413,3.104-32.827,4.658-49.283c5.212,0,10.357,0,15.613,0
		c0.117,1.007,0.25,2.015,0.348,3.027c0.667,7.007,1.334,14.014,1.986,21.021c0.492,5.289,0.959,10.581,1.447,15.871
		c0.389,4.231,1.023,8.455,1.143,12.694c0.195,6.98,0.063,13.97,0.063,20.955c0,0.127-0.032,0.255-0.059,0.447
		C63.939,95.816,32.123,95.816,0.134,95.816z M35.479,89.762c0,0.018,0,0.036,0,0.055c0.831,0,1.662,0.022,2.492-0.004
		c2.651-0.09,4.861-1.555,5.064-4.209c0.19-2.49,0.076-5.023-0.139-7.52c-0.147-1.703-1.81-3.256-3.531-3.402
		c-2.273-0.193-4.573-0.291-6.85-0.183c-2.396,0.114-4.202,1.66-4.474,3.896c-0.263,2.16-0.311,4.375-0.169,6.547
		c0.189,2.904,1.873,4.461,4.523,4.799C33.408,89.87,34.45,89.762,35.479,89.762z M21.521,82.121c0.011,0,0.022,0,0.034,0
		c0-0.896,0.014-1.796-0.002-2.694c-0.042-2.37-1.685-4.634-4.042-4.79c-2.28-0.15-4.58-0.226-6.859-0.104
		c-2.355,0.125-4.235,2.103-4.308,4.215c-0.073,2.12-0.235,4.255-0.081,6.361c0.189,2.593,1.797,4.383,4.394,4.582
		c2.144,0.166,4.32,0.17,6.464,0.006c2.601-0.199,4.14-2.081,4.381-4.387C21.612,84.259,21.521,83.186,21.521,82.121z
		 M49.501,82.085c-0.005,0-0.01,0-0.015,0c0,0.931-0.019,1.858,0.004,2.789c0.055,2.468,1.865,4.612,4.087,4.74
		c2.179,0.126,4.373,0.259,6.547,0.139c2.498-0.139,4.425-1.89,4.562-4.278c0.117-2.08,0.263-4.181,0.107-6.25
		c-0.197-2.666-1.748-4.445-4.305-4.654c-2.268-0.188-4.569-0.096-6.848,0.031c-2.304,0.131-3.988,2.225-4.129,4.496
		C49.449,80.09,49.501,81.089,49.501,82.085z"/>
	<path fill="#0CB266" d="M37.454,1.223c0.356,3.454,2,4.975,5.756,5.394c3.212,0.357,6.372-0.034,9.479-0.756
		c4.187-0.971,8.313-2.199,12.514-3.107c4.6-0.994,9.238-1.108,13.703,0.702c3.988,1.618,6.865,4.516,8.656,8.39
		c0.918,1.988,1.494,4.136,2.285,6.376c-5.035,0-9.736,0-14.482,0c-0.145-0.546-0.248-1.126-0.449-1.672
		c-0.654-1.788-2.068-2.834-3.82-3.149c-2.467-0.443-4.981-0.729-7.486-0.827c-4.35-0.17-8.711-0.055-13.06-0.23
		c-3.677-0.149-7.363-0.523-10.633-2.454C36.873,8.091,35.778,4.577,37.454,1.223z"/>
</g>
</svg>
