<?xml version="1.0" encoding="utf-8"?>
<!-- Generator: Adobe Illustrator 16.0.0, SVG Export Plug-In . SVG Version: 6.00 Build 0)  -->
<!DOCTYPE svg PUBLIC "-//W3C//DTD SVG 1.1//EN" "http://www.w3.org/Graphics/SVG/1.1/DTD/svg11.dtd">
<svg version="1.1" xmlns="http://www.w3.org/2000/svg" xmlns:xlink="http://www.w3.org/1999/xlink" x="0px" y="0px" width="22px"
	 height="22px" viewBox="0 0 22 22" enable-background="new 0 0 22 22" xml:space="preserve">
<g id="图层_1" display="none">
	<g id="图层_3" display="inline">
		<g>
			<path fill="#CCCCCC" d="M19.592,4.338c-3.467-0.69-6.919-1.378-10.39-2.068C8.988,2.857,8.777,3.434,8.565,4.011
				c-0.99,2.718-1.98,5.435-2.969,8.154c-0.125,0.346-0.328,0.601-0.711,0.655c-0.537,0.074-1.093-0.437-0.832-1.147
				c0.34-0.932,0.681-1.862,1.02-2.793c0.932-2.558,1.866-5.114,2.796-7.671c0.203-0.551,0.544-0.741,1.118-0.626
				c3.893,0.773,7.783,1.546,11.672,2.319c0.624,0.124,0.907,0.567,0.716,1.158c-1.393,4.308-2.807,8.608-4.477,12.819
				c-0.371,0.936-0.801,1.846-1.392,2.671c-0.837,1.185-1.968,1.806-3.425,1.894c-0.873,0.057-1.669-0.139-2.444-0.486
				c-2.195-0.989-4.383-1.996-6.581-2.979c-0.616-0.274-1.182-0.604-1.617-1.125c-0.712-0.854-0.943-1.854-0.871-2.938
				c0.024-0.367,0.09-0.729,0.141-1.127c0.092,0.028,0.153,0.05,0.212,0.071c2.942,1.188,5.885,2.383,8.828,3.563
				c0.137,0.056,0.179,0.119,0.179,0.271c-0.011,0.716,0.056,1.426,0.392,2.074c0.403,0.778,1.184,1.146,2.058,1.02
				c0.962-0.141,1.563-0.734,2.037-1.505c0.589-0.955,0.992-1.996,1.391-3.038c1.252-3.266,2.363-6.576,3.457-9.896
				C19.37,5.016,19.479,4.684,19.592,4.338z"/>
			<path fill="#CCCCCC" d="M14.158,14.311c0.015,0.563-0.504,0.947-1.075,0.771c-1.167-0.369-2.33-0.755-3.488-1.145
				c-0.374-0.127-0.593-0.492-0.555-0.849c0.039-0.369,0.314-0.657,0.711-0.707c0.137-0.021,0.288,0.007,0.421,0.05
				c1.125,0.363,2.246,0.731,3.37,1.104C13.945,13.668,14.148,13.938,14.158,14.311z"/>
			<path fill="#CCCCCC" d="M15.479,11.041c0.022,0.44-0.348,0.823-0.789,0.811c-0.121-0.004-0.246-0.026-0.36-0.064
				c-1.11-0.358-2.222-0.722-3.327-1.089c-0.504-0.166-0.731-0.583-0.586-1.051c0.103-0.328,0.435-0.563,0.782-0.54
				c0.114,0.008,0.229,0.034,0.341,0.07c1.104,0.358,2.206,0.72,3.309,1.083C15.26,10.396,15.462,10.65,15.479,11.041z"/>
			<path fill="#CCCCCC" d="M16.919,7.548c0.007,0.461-0.424,0.867-0.878,0.779c-0.494-0.097-0.98-0.242-1.468-0.372
				c-0.718-0.194-1.438-0.384-2.155-0.59c-0.605-0.176-0.828-0.81-0.445-1.293c0.245-0.313,0.582-0.346,0.948-0.245
				c0.433,0.12,0.867,0.24,1.304,0.358c0.664,0.182,1.33,0.362,1.994,0.545C16.677,6.857,16.913,7.136,16.919,7.548z"/>
			<path fill="#CCCCCC" d="M8.84,8.371c0.55,0.014,0.897,0.361,0.903,0.834c0.006,0.442-0.381,0.796-0.822,0.79
				C8.401,9.985,8.004,9.62,8.017,9.16C8.026,8.717,8.397,8.361,8.84,8.371z"/>
			<path fill="#CCCCCC" d="M10.175,6.632C9.658,6.623,9.27,6.267,9.277,5.813c0.008-0.45,0.372-0.798,0.826-0.788
				c0.536,0.011,0.915,0.361,0.902,0.832C10.993,6.313,10.641,6.641,10.175,6.632z"/>
			<path fill="#CCCCCC" d="M7.576,11.487c0.509,0.01,0.888,0.367,0.877,0.828c-0.01,0.446-0.366,0.791-0.802,0.781
				c-0.55-0.013-0.937-0.359-0.923-0.828C6.739,11.811,7.101,11.478,7.576,11.487z"/>
		</g>
	</g>
</g>
<g id="图层_2" display="none">
	<path display="inline" fill-rule="evenodd" clip-rule="evenodd" fill="#CCCCCC" d="M10.871,0.313c0.6,1.121,1.161,2.146,1.7,3.183
		c1.413,2.717,2.739,5.472,3.762,8.367c0.701,1.986,0.888,3.963,0.008,5.936c-0.869,1.953-2.273,3.328-4.418,3.77
		c-2.377,0.49-4.719-0.576-6.059-2.754c-1.278-2.076-1.615-4.291-0.502-6.529C6.32,10.358,7.429,8.502,8.479,6.62
		c0.905-1.623,1.814-3.243,2.2-5.088C10.755,1.167,10.796,0.796,10.871,0.313z M12.688,9.5c-0.016,0.009-0.333,2.541-0.331,3.746
		c0,0.142-0.021,0.296-0.006,0.435c0.006,0.046,0.039,0.543,0.056,0.585c0.181,0.463,0.303,0.52,0.607,0.891
		c0.469,0.572,1.229,0.527,1.768,0.004c0.631-0.611,0.832-1.574,0.327-2.295C14.304,11.717,13.549,10.61,12.688,9.5z"/>
	<path display="inline" fill-rule="evenodd" clip-rule="evenodd" d="M13.297,13.844"/>
</g>
<g id="图层_3_1_" display="none">
	<g display="inline">
		<g>
			<path fill-rule="evenodd" clip-rule="evenodd" fill="#CCCCCC" d="M9.698,19.465c-0.962,0-1.922-0.006-2.883,0.002
				c-2.594,0.02-4.906-1.697-5.738-4.135C0.081,12.412,1.7,8.957,4.6,7.885c1.198-0.443,2.409-0.517,3.653-0.261
				C8.384,7.652,8.59,7.581,8.684,7.482c2.046-2.174,5.423-1.975,7.109,0.468c0.787,1.141,1.014,2.424,0.605,3.776
				c-0.077,0.256-0.054,0.434,0.1,0.656c0.965,1.395,1.122,2.9,0.418,4.432c-0.763,1.654-2.108,2.549-3.935,2.631
				c-1.089,0.051-2.189,0.01-3.283,0.01C9.698,19.459,9.698,19.461,9.698,19.465z M11.187,12.484
				c-0.12-0.32-0.202-0.602-0.328-0.861C9.812,9.434,7.396,8.476,5.132,9.345c-1.967,0.755-3.188,3.088-2.679,5.12
				c0.521,2.066,2.278,3.443,4.442,3.457c1.908,0.01,3.816,0.02,5.726-0.01c0.469-0.008,0.978-0.086,1.395-0.287
				c0.902-0.432,1.444-1.15,1.686-2.178c0.288-1.223-0.534-2.82-1.933-3.275C12.876,11.881,12.039,11.99,11.187,12.484z
				 M14.933,10.977c0.35-0.92-0.275-2.363-1.263-2.977c-1.203-0.747-2.752-0.591-3.646,0.388c0.785,0.526,1.451,1.169,1.942,1.978
				c0.04,0.064,0.152,0.125,0.225,0.119C13.149,10.408,14.072,10.518,14.933,10.977z"/>
			<path fill-rule="evenodd" clip-rule="evenodd" fill="#CCCCCC" d="M19.576,9.673c0.319,0.028,0.644,0.024,0.951,0.092
				c0.367,0.08,0.553,0.35,0.55,0.729c-0.005,0.363-0.189,0.666-0.535,0.694c-0.657,0.054-1.324,0.054-1.979-0.004
				c-0.354-0.031-0.516-0.373-0.51-0.716c0.007-0.34,0.173-0.632,0.534-0.704C18.909,9.7,19.246,9.701,19.576,9.673z"/>
			<path fill-rule="evenodd" clip-rule="evenodd" fill="#CCCCCC" d="M17.983,3.841c0.185,0.149,0.479,0.276,0.568,0.49
				c0.092,0.216,0.081,0.594-0.056,0.767C18.137,5.556,17.7,5.96,17.262,6.347c-0.284,0.249-0.715,0.175-0.979-0.096
				c-0.252-0.26-0.317-0.668-0.071-0.947c0.396-0.447,0.837-0.857,1.274-1.266C17.583,3.948,17.748,3.931,17.983,3.841z"/>
			<path fill-rule="evenodd" clip-rule="evenodd" fill="#CCCCCC" d="M12.857,2.993c-0.017,0.314-0.013,0.61-0.054,0.898
				c-0.053,0.368-0.354,0.625-0.717,0.625c-0.368-0.001-0.702-0.168-0.733-0.54c-0.056-0.644-0.06-1.3,0.004-1.944
				c0.037-0.356,0.353-0.547,0.739-0.528c0.384,0.02,0.633,0.227,0.698,0.593C12.851,2.397,12.84,2.708,12.857,2.993z"/>
			<path fill-rule="evenodd" clip-rule="evenodd" fill="#CCCCCC" d="M8.375,3.714c0.149,0.278,0.306,0.528,0.421,0.796
				c0.146,0.341,0.022,0.717-0.288,0.905C8.192,5.607,7.819,5.639,7.599,5.338C7.217,4.816,6.874,4.256,6.594,3.674
				C6.438,3.351,6.61,3.023,6.952,2.839c0.339-0.185,0.657-0.135,0.905,0.144C8.06,3.209,8.212,3.48,8.375,3.714z"/>
		</g>
	</g>
</g>
<g id="图层_4" display="none">
	<g display="inline">
		<g>
			<path fill-rule="evenodd" clip-rule="evenodd" fill="#CCCCCC" d="M21.468,11.674c-0.068,0.305-0.13,0.613-0.211,0.916
				c-0.05,0.179-0.122,0.355-0.212,0.518c-0.381,0.702-0.913,1.245-1.606,1.66c-0.355,0.215-0.734,0.263-1.111,0.365
				c-0.563,0.15-1.139,0.156-1.717,0.154c-3.853-0.006-7.707,0.005-11.559-0.012C4.525,15.271,4,15.119,3.473,15.063
				C3,15.011,2.674,14.694,2.293,14.472c-0.364-0.211-0.606-0.523-0.861-0.851c-0.419-0.535-0.588-1.143-0.702-1.787
				C0.526,10.669,0.892,9.677,1.632,8.8c0.186-0.221,0.405-0.426,0.647-0.581c0.267-0.171,0.36-0.392,0.375-0.684
				c0.053-1.007,0.418-1.915,0.974-2.733c0.505-0.744,1.159-1.347,1.957-1.793C6.108,2.715,6.659,2.501,7.236,2.38
				c0.568-0.118,1.151-0.205,1.737-0.085c0.093,0.019,0.189,0.026,0.283,0.031c0.758,0.041,1.451,0.326,2.087,0.685
				c0.604,0.34,1.187,0.755,1.6,1.348c0.129,0.186,0.273,0.362,0.43,0.526c0.052,0.055,0.172,0.102,0.236,0.08
				c0.8-0.264,1.601-0.113,2.356,0.103c0.558,0.16,1.089,0.467,1.536,0.897c0.423,0.406,0.734,0.868,0.993,1.378
				c0.084,0.164,0.188,0.291,0.373,0.342c0.05,0.014,0.092,0.048,0.14,0.063c0.63,0.198,1.125,0.605,1.54,1.087
				c0.409,0.476,0.727,1.022,0.822,1.666c0.022,0.158,0.064,0.314,0.097,0.47C21.468,11.206,21.468,11.44,21.468,11.674z
				 M12.809,6.765c-0.157-0.322-0.323-0.663-0.492-1.002c-0.269-0.54-0.706-0.958-1.172-1.285C10.599,4.093,10,3.74,9.289,3.694
				c-0.397-0.026-0.783-0.17-1.193-0.06c-0.374,0.1-0.759,0.153-1.134,0.249C6.79,3.925,6.623,4.003,6.466,4.088
				C5.591,4.553,4.915,5.22,4.45,6.097C4.443,6.11,4.43,6.12,4.425,6.133C4.36,6.287,4.281,6.436,4.238,6.594
				C4.177,6.818,4.135,7.049,4.097,7.281C4.038,7.639,3.934,8,3.946,8.358c0.022,0.601,0.105,0.458-0.417,0.662
				c-0.969,0.383-1.672,1.58-1.499,2.661c0.094,0.592,0.333,1.107,0.736,1.506c0.518,0.512,1.196,0.742,1.934,0.742
				c4.087,0.004,8.175,0.004,12.263-0.004c0.413,0,0.828-0.063,1.239-0.104c0.511-0.054,0.912-0.358,1.233-0.698
				c0.337-0.358,0.575-0.802,0.666-1.329c0.09-0.518,0.023-1.011-0.169-1.452c-0.192-0.444-0.47-0.881-0.955-1.106
				c-0.184-0.086-0.347-0.221-0.537-0.286c-0.232-0.078-0.481-0.118-0.728-0.154c-0.133-0.019-0.179-0.082-0.211-0.202
				c-0.135-0.502-0.297-0.984-0.66-1.388c-0.406-0.447-0.874-0.763-1.46-0.902c-0.519-0.124-1.042-0.204-1.556-0.005
				C13.49,6.428,13.167,6.6,12.809,6.765z"/>
			<path fill-rule="evenodd" clip-rule="evenodd" fill="#CCCCCC" d="M13.336,19.762c-0.271-0.232-0.341-0.535-0.319-0.881
				c0.019-0.328-0.002-0.657,0.006-0.986c0.009-0.407,0.271-0.682,0.643-0.688c0.383-0.006,0.667,0.272,0.676,0.682
				c0.008,0.417,0,0.834,0.002,1.251c0.002,0.273-0.141,0.466-0.348,0.622C13.775,19.762,13.555,19.762,13.336,19.762z"/>
			<path fill-rule="evenodd" clip-rule="evenodd" fill="#CCCCCC" d="M8.148,19.762c-0.271-0.2-0.358-0.474-0.344-0.803
				c0.017-0.387-0.005-0.775,0.018-1.161c0.018-0.316,0.262-0.551,0.557-0.585c0.323-0.038,0.609,0.13,0.707,0.429
				c0.033,0.103,0.041,0.215,0.042,0.323c0.005,0.321-0.012,0.644,0.006,0.963c0.018,0.335-0.06,0.619-0.327,0.834
				C8.588,19.762,8.368,19.762,8.148,19.762z"/>
			<path fill-rule="evenodd" clip-rule="evenodd" fill="#CCCCCC" d="M6.523,17.234c0,0.221,0.01,0.439-0.002,0.658
				c-0.019,0.365-0.307,0.632-0.66,0.63c-0.342-0.004-0.637-0.267-0.649-0.618c-0.016-0.461-0.016-0.924,0-1.384
				c0.012-0.353,0.306-0.615,0.648-0.617c0.354-0.004,0.643,0.265,0.661,0.628C6.533,16.766,6.523,17,6.523,17.234z"/>
			<path fill-rule="evenodd" clip-rule="evenodd" fill="#CCCCCC" d="M16.943,17.221c0,0.219,0.008,0.439-0.002,0.658
				c-0.018,0.37-0.295,0.638-0.647,0.644c-0.359,0.004-0.656-0.272-0.666-0.648c-0.014-0.438-0.012-0.88,0-1.317
				c0.01-0.381,0.299-0.655,0.658-0.653c0.364,0.002,0.642,0.276,0.655,0.659C16.951,16.781,16.943,17.002,16.943,17.221
				L16.943,17.221z"/>
			<path fill-rule="evenodd" clip-rule="evenodd" fill="#CCCCCC" d="M10.422,17.205c0-0.227-0.01-0.452,0.003-0.679
				c0.021-0.362,0.294-0.619,0.641-0.625c0.345-0.004,0.643,0.246,0.657,0.605c0.021,0.474,0.021,0.95-0.001,1.426
				c-0.016,0.345-0.311,0.59-0.647,0.59c-0.345,0-0.626-0.257-0.649-0.614C10.411,17.676,10.423,17.439,10.422,17.205L10.422,17.205
				z"/>
		</g>
	</g>
</g>
<g id="图层_5" display="none">
	<g display="inline">
		<g>
			<path fill-rule="evenodd" clip-rule="evenodd" fill="#CCCCD2" d="M9.857,18.701c-1.55-1.124-3.115-2.228-4.64-3.385
				c-0.538-0.407-1.062-0.649-1.745-0.583c-0.495,0.048-0.998-0.001-1.498,0.012c-0.549,0.014-0.835-0.267-0.838-0.79
				c-0.013-2.219-0.015-4.436,0-6.653C1.139,6.735,1.44,6.417,2.01,6.497C3.756,6.74,5.173,6.18,6.461,5.01
				c0.852-0.775,1.83-1.418,2.782-2.075c0.249-0.171,0.679-0.318,0.905-0.214c0.218,0.101,0.392,0.54,0.394,0.831
				c0.023,4.715,0.014,9.431,0.021,14.146c0,0.467-0.167,0.798-0.586,1.003C9.937,18.701,9.896,18.701,9.857,18.701z M9.188,16.618
				c0-4.063,0-7.978,0-11.95c-0.184,0.109-0.309,0.17-0.418,0.251C7.695,5.715,6.612,6.501,5.557,7.32
				c-0.448,0.347-0.9,0.547-1.48,0.498C3.568,7.774,3.052,7.81,2.513,7.81c0,1.896,0,3.723,0,5.53
				c0.079,0.033,0.114,0.057,0.151,0.061c0.119,0.008,0.242,0.027,0.358,0.009c1.349-0.224,2.418,0.29,3.419,1.161
				C7.275,15.295,8.214,15.899,9.188,16.618z"/>
			<path fill-rule="evenodd" clip-rule="evenodd" fill="#CCCCD2" d="M19.661,10.311c-0.035-2.027-0.687-4.172-2.283-5.981
				C17.006,3.91,17,3.479,17.348,3.23c0.421-0.299,0.739-0.087,1.03,0.241c1.429,1.599,2.211,3.479,2.494,5.589
				c0.39,2.893-0.208,5.546-1.879,7.948c-0.181,0.261-0.403,0.494-0.602,0.744c-0.299,0.379-0.676,0.567-1.072,0.22
				c-0.404-0.356-0.191-0.735,0.074-1.11c0.472-0.664,0.969-1.323,1.336-2.043C19.395,13.522,19.655,12.113,19.661,10.311z"/>
			<path fill-rule="evenodd" clip-rule="evenodd" fill="#CCCCD2" d="M18.343,10.262c-0.065,2.305-0.617,4.093-1.968,5.585
				c-0.398,0.442-0.827,0.528-1.131,0.228c-0.402-0.401-0.182-0.768,0.108-1.103c1.628-1.883,1.973-4.045,1.298-6.378
				c-0.192-0.672-0.615-1.281-0.954-1.907c-0.102-0.189-0.279-0.336-0.415-0.509c-0.255-0.324-0.412-0.679-0.037-1.003
				c0.37-0.319,0.734-0.205,1.049,0.128c0.825,0.872,1.409,1.89,1.706,3.047C18.186,9.078,18.266,9.833,18.343,10.262z"/>
			<path fill-rule="evenodd" clip-rule="evenodd" fill="#CCCCD2" d="M15.645,10.628c-0.071,1.302-0.442,2.489-1.434,3.427
				c-0.327,0.307-0.674,0.382-1.008,0.088c-0.362-0.32-0.264-0.689,0.058-0.988c1.412-1.32,1.385-3.836-0.036-5.106
				c-0.306-0.271-0.399-0.627-0.075-0.942c0.354-0.339,0.718-0.253,1.058,0.067C15.197,8.108,15.573,9.295,15.645,10.628z"/>
		</g>
	</g>
</g>
<g id="图层_6" display="none">
	<g display="inline">
		<g>
			<path fill-rule="evenodd" clip-rule="evenodd" fill="#CCCCCC" d="M13.851,18.294c0-0.634,0-1.257,0-1.893c0.06,0,0.104,0,0.146,0
				c0.649-0.002,1.3,0.014,1.948-0.01c0.983-0.036,1.825-0.421,2.521-1.115c0.64-0.64,0.999-1.417,1.096-2.315
				c0.207-1.934-1.15-3.759-3.06-4.121c-0.793-0.15-1.557-0.063-2.292,0.269c-0.063,0.029-0.099,0.018-0.146-0.03
				c-0.198-0.203-0.403-0.399-0.599-0.604c-0.064-0.067-0.121-0.148-0.161-0.231c-0.776-1.575-1.995-2.63-3.693-3.09
				C6.444,4.293,3.198,6.306,2.54,9.518c-0.624,3.046,1.267,6.01,4.299,6.735c0.391,0.092,0.788,0.145,1.189,0.145
				c0.081,0,0.103,0.027,0.103,0.104c-0.004,0.449-0.004,0.897-0.001,1.347c0.001,0.145,0.013,0.291,0.02,0.447
				c-0.081,0-0.167,0.002-0.251-0.002c-1.121-0.04-2.191-0.293-3.188-0.815c-2.151-1.127-3.516-2.878-4.024-5.255
				c-0.849-3.967,1.64-7.936,5.569-8.929C9,2.6,11.873,3.464,13.775,5.557c0.368,0.404,0.691,0.84,0.959,1.316
				c0.045,0.081,0.093,0.095,0.174,0.081c0.339-0.063,0.68-0.088,1.025-0.077c1.244,0.039,2.363,0.437,3.341,1.205
				c1.149,0.902,1.86,2.078,2.115,3.516c0.516,2.927-1.298,5.751-4.166,6.512c-0.464,0.122-0.936,0.187-1.414,0.188
				c-0.628,0.003-1.255,0.001-1.881,0.001C13.899,18.298,13.872,18.296,13.851,18.294z"/>
			<path fill-rule="evenodd" clip-rule="evenodd" fill="#CCCCCC" d="M11.94,12.375c0,0.037,0,0.074,0,0.111
				c0,1.838,0.001,3.674,0,5.511c0,0.454-0.326,0.841-0.773,0.927c-0.434,0.082-0.888-0.155-1.045-0.569
				c-0.053-0.139-0.074-0.297-0.074-0.447c-0.005-1.805-0.002-3.609-0.002-5.415c0-0.039,0-0.08,0-0.119
				c-0.016-0.01-0.03-0.02-0.045-0.029c-0.016,0.031-0.027,0.068-0.051,0.092c-0.327,0.331-0.653,0.662-0.986,0.986
				c-0.264,0.256-0.582,0.337-0.933,0.232c-0.356-0.104-0.581-0.35-0.657-0.713c-0.069-0.33,0.02-0.625,0.259-0.866
				c0.343-0.346,0.688-0.689,1.032-1.034C9.205,10.5,9.745,9.96,10.285,9.42c0.423-0.423,0.992-0.423,1.415,0
				c0.882,0.882,1.766,1.764,2.646,2.648c0.504,0.506,0.321,1.344-0.344,1.572c-0.37,0.127-0.707,0.049-0.986-0.225
				c-0.331-0.322-0.654-0.651-0.98-0.979c-0.023-0.023-0.04-0.057-0.061-0.084C11.964,12.36,11.952,12.367,11.94,12.375z"/>
		</g>
	</g>
</g>
<g id="图层_7">
	<path fill-rule="evenodd" clip-rule="evenodd" fill="#848D9B" d="M17.842,7.578c-0.037,1.304-0.399,2.498-1.03,3.635
		c-1.237,2.232-2.437,4.483-3.651,6.727c-0.412,0.76-0.814,1.526-1.242,2.277c-0.148,0.258-0.33,0.514-0.548,0.713
		c-0.406,0.373-0.93,0.37-1.336-0.005c-0.213-0.195-0.396-0.438-0.535-0.692c-1.604-2.947-3.188-5.905-4.795-8.851
		C4.245,10.54,3.872,9.68,3.708,8.729C3.227,5.953,4.511,3.08,6.932,1.563c4.184-2.623,9.711-0.282,10.727,4.551
		C17.759,6.592,17.782,7.089,17.842,7.578z M10.702,4.177C8.623,4.188,6.931,5.882,6.936,7.948c0.004,2.095,1.708,3.769,3.825,3.76
		c2.06-0.008,3.728-1.716,3.718-3.807C14.47,5.85,12.762,4.167,10.702,4.177z"/>
</g>
<g id="图层_8" display="none">
	<path display="inline" fill-rule="evenodd" clip-rule="evenodd" fill="#CCCCCC" d="M12.248,21.523c-0.895,0-1.79,0-2.683,0
		c-0.001-0.032,0-0.065-0.005-0.099c-0.147-0.887-0.295-1.773-0.447-2.659c-0.006-0.037-0.053-0.082-0.09-0.094
		c-0.137-0.046-0.278-0.076-0.417-0.117c-0.667-0.201-1.295-0.489-1.891-0.855c-0.789,0.563-1.574,1.124-2.35,1.678
		c-0.632-0.633-1.255-1.254-1.885-1.886c0.017-0.025,0.038-0.059,0.062-0.092c0.516-0.724,1.033-1.447,1.55-2.17
		c0.037-0.051,0.068-0.09,0.023-0.162c-0.424-0.69-0.732-1.431-0.923-2.219c-0.018-0.073-0.05-0.103-0.118-0.113
		c-0.313-0.051-0.626-0.103-0.94-0.155c-0.609-0.101-1.218-0.202-1.824-0.304c-0.005-0.016-0.01-0.022-0.01-0.029
		c-0.001-0.854,0-1.706-0.003-2.56c0-0.065,0.027-0.082,0.086-0.091C1.265,9.45,2.147,9.298,3.031,9.158
		C3.145,9.14,3.179,9.093,3.202,8.997c0.188-0.763,0.487-1.48,0.896-2.15c0.046-0.075,0.042-0.125-0.008-0.195
		C3.705,6.12,3.323,5.584,2.941,5.049c-0.158-0.22-0.314-0.442-0.483-0.679C2.501,4.334,2.54,4.309,2.571,4.276
		C3.09,3.759,3.608,3.24,4.126,2.722C4.35,2.499,4.349,2.5,4.608,2.686c0.673,0.48,1.347,0.961,2.02,1.441
		c0.044,0.032,0.081,0.07,0.151,0.026C7.48,3.72,8.234,3.414,9.031,3.21c0.033-0.008,0.076-0.051,0.082-0.083
		C9.265,2.232,9.416,1.337,9.56,0.442C9.574,0.35,9.603,0.328,9.69,0.328c0.82,0.003,1.64,0.001,2.459,0.001
		c0.028,0,0.056,0,0.091,0c0.153,0.913,0.307,1.819,0.454,2.726c0.016,0.093,0.04,0.151,0.146,0.176
		c0.775,0.186,1.501,0.496,2.184,0.909c0.064,0.04,0.106,0.036,0.165-0.007c0.523-0.376,1.049-0.75,1.573-1.125
		c0.234-0.168,0.469-0.335,0.688-0.492c0.638,0.635,1.263,1.26,1.891,1.889c-0.553,0.773-1.113,1.557-1.672,2.339
		c0.006,0.016,0.012,0.027,0.018,0.038c0.435,0.709,0.755,1.465,0.948,2.275c0.016,0.072,0.059,0.084,0.121,0.095
		c0.573,0.093,1.147,0.192,1.722,0.288c0.336,0.056,0.677,0.105,1.013,0.158c0,0.895,0,1.79,0,2.683
		c-0.299,0.051-0.6,0.101-0.902,0.15c-0.614,0.102-1.228,0.204-1.844,0.305c-0.061,0.011-0.096,0.037-0.113,0.106
		c-0.189,0.784-0.492,1.521-0.913,2.208c-0.043,0.067-0.041,0.111,0.006,0.173c0.341,0.473,0.679,0.948,1.019,1.422
		c0.203,0.286,0.407,0.571,0.604,0.851c-0.63,0.632-1.253,1.255-1.883,1.884c-0.023-0.017-0.055-0.037-0.084-0.059
		c-0.726-0.518-1.454-1.036-2.18-1.557c-0.063-0.046-0.108-0.061-0.183-0.015c-0.671,0.41-1.387,0.714-2.147,0.898
		c-0.122,0.028-0.172,0.081-0.178,0.204c-0.006,0.115-0.035,0.229-0.055,0.342C12.508,19.971,12.378,20.747,12.248,21.523z
		 M16.199,10.951c0.023-2.847-2.289-5.292-5.279-5.3c-2.919-0.009-5.305,2.369-5.304,5.28c0.001,2.993,2.418,5.266,5.215,5.305
		C13.802,16.277,16.217,13.854,16.199,10.951z"/>
</g>
</svg>
