<?xml version="1.0" standalone="no"?><!DOCTYPE svg PUBLIC "-//W3C//DTD SVG 1.1//EN" "http://www.w3.org/Graphics/SVG/1.1/DTD/svg11.dtd"><svg t="1482750663960" class="icon" style="" viewBox="0 0 1024 1024" version="1.1" xmlns="http://www.w3.org/2000/svg" p-id="1455" xmlns:xlink="http://www.w3.org/1999/xlink" width="22" height="22"><defs><style type="text/css"></style></defs><path d="M375.478044 204.777244l290.110578 0c9.4208 0 17.066667-7.623111 17.066667-17.066667l0-17.066667c0-9.443556-7.645867-17.066667-17.066667-17.066667L375.478044 153.577244c-9.443556 0-17.066667 7.623111-17.066667 17.066667l0 17.066667C358.411378 197.154133 366.034489 204.777244 375.478044 204.777244zM341.344711 341.287822l341.310578 0c9.4208 0 17.043911-7.623111 17.043911-17.066667l0-17.066667c0-9.443556-7.623111-17.066667-17.043911-17.066667L341.344711 290.087822c-9.4208 0-17.066667 7.623111-17.066667 17.066667l0 17.066667C324.278044 333.664711 331.923911 341.287822 341.344711 341.287822zM733.832533 426.621156 290.144711 426.621156c-9.4208 0-17.066667 7.623111-17.066667 17.066667l0 17.066667c0 9.4208 7.623111 17.066667 17.066667 17.066667l443.687822 0c9.4208 0 17.066667-7.623111 17.066667-17.066667l0-17.066667C750.8992 434.244267 743.253333 426.621156 733.832533 426.621156zM802.0992 0 221.9008 0c-28.2624 0-51.2 22.914844-51.2 51.2l0 589.528178c0 32.540444 22.914844 58.936889 51.2 58.936889l580.1984 0c28.2624 0 51.2-26.396444 51.2-58.936889L853.2992 51.2C853.2992 22.914844 830.3616 0 802.0992 0zM802.0992 621.044622c0 21.7088-15.291733 39.3216-34.133333 39.3216L256.034133 660.366222c-18.8416 0-34.133333-17.590044-34.133333-39.3216L221.9008 85.333333c0-18.864356 15.291733-34.133333 34.133333-34.133333l511.931733 0c18.8416 0 34.133333 15.268978 34.133333 34.133333L802.0992 621.044622zM972.743111 597.265067 51.256889 597.265067c-28.2624 0-51.2 19.091911-51.2 42.643911l0 341.287822c0 23.574756 22.914844 42.666667 51.2 42.666667l921.486222 0c28.2624 0 51.2-19.091911 51.2-42.666667L1023.943111 639.908978C1023.943111 616.356978 1001.005511 597.265067 972.743111 597.265067zM511.988622 870.286222c-37.705956 0-68.266667-30.560711-68.266667-68.266667 0-37.6832 30.560711-68.243911 68.266667-68.243911s68.266667 30.560711 68.266667 68.243911C580.255289 839.725511 549.694578 870.286222 511.988622 870.286222z" p-id="1456" fill="#848D9B"></path></svg>