<?xml version="1.0" standalone="no"?><!DOCTYPE svg PUBLIC "-//W3C//DTD SVG 1.1//EN" "http://www.w3.org/Graphics/SVG/1.1/DTD/svg11.dtd"><svg width="22" height="22" viewBox="0 0 22 22" version="1.1" xmlns="http://www.w3.org/2000/svg" xmlns:xlink="http://www.w3.org/1999/xlink"><defs><style type="text/css"><![CDATA[
@font-face { font-family: ifont; src: url("//at.alicdn.com/t/font_1442373896_4754455.eot?#iefix") format("embedded-opentype"), url("//at.alicdn.com/t/font_1442373896_4754455.woff") format("woff"), url("//at.alicdn.com/t/font_1442373896_4754455.ttf") format("truetype"), url("//at.alicdn.com/t/font_1442373896_4754455.svg#ifont") format("svg"); }

]]></style></defs><g class="transform-group"><g transform="scale(0.021484375, 0.021484375)"><path d="M965.632 815.672889C1001.073778 828.643556 1024 837.916444 1024 837.916444l-13.141333 50.972444c0 0-26.225778-4.096-65.422222-11.832889-12.060444 22.016-28.672 40.675556-48.014222 55.125333 19.456 39.879111 31.573333 66.958222 31.573333 66.958222L886.044444 1024c0 0-18.432-25.6-44.487111-64.568889-20.195556 5.688889-41.472 8.021333-63.146667 5.688889C764.302222 1000.903111 754.403556 1024 754.403556 1024l-52.508444-12.401778c0 0 4.892444-26.680889 13.653333-66.673778-14.563556-8.021333-27.591111-18.033778-39.082667-29.639111-38.513778 19.456-64.568889 31.516444-64.568889 31.516444l-24.348444-43.690667c0 0 21.162667-15.758222 53.987556-38.855111-10.695111-23.665778-16.497778-49.720889-15.815111-76.686222-34.531556-12.686222-56.832-21.731556-56.832-21.731556l13.084444-50.972444c0 0 22.471111 3.527111 56.888889 10.126222 8.590222-21.048889 21.447111-39.310222 36.579556-54.897778-19.114667-39.196444-30.947556-65.706667-30.947556-65.706667l42.894222-24.860444c0 0 15.473778 21.504 38.058667 54.954667 27.363556-12.856889 58.083556-18.773333 89.372444-15.303111 14.051556-35.726222 24.007111-58.823111 24.007111-58.823111l52.451556 12.401778c0 0-4.835556 26.737778-13.596444 66.844444 22.300444 12.344889 41.187556 29.525333 55.808 49.607111 39.139556-19.854222 65.763556-32.142222 65.763556-32.142222l24.405333 43.690667c0 0-25.088 18.773333-63.203556 45.283556C966.542222 768.284444 968.817778 791.779556 965.632 815.672889zM825.856 680.220444c-60.643556-16.554667-123.050667 20.138667-139.320889 81.976889-16.270222 61.781333 19.797333 125.383111 80.440889 141.937778 60.757333 16.611556 123.107556-20.138667 139.320889-81.92C922.567111 760.32 886.613333 696.775111 825.856 680.220444zM585.329778 550.513778c36.750222 43.349333 59.676444 72.078222 59.676444 72.078222l-53.020444 53.987556c0 0-29.809778-24.803556-74.353778-64-32.881778 21.390222-70.485333 36.067556-110.933333 41.585778-4.380444 60.416-8.533333 99.384889-8.533333 99.384889L322.389333 753.550222c0 0-4.266667-40.448-8.760889-102.741333-37.489778-7.964444-72.021333-24.064-102.286222-45.795556-49.152 43.633778-82.773333 71.509333-82.773333 71.509333l-53.020444-53.987556c0 0 27.306667-34.190222 70.087111-84.252444C124.245333 507.448889 108.373333 472.291556 100.579556 433.948444 39.537778 429.397333 0 425.073778 0 425.073778L0 347.761778c0 0 38.286222-4.209778 97.564444-8.647111 5.461333-41.187556 19.911111-79.473778 40.903111-112.981333C99.896889 180.736 75.548444 150.300444 75.548444 150.300444L128.568889 96.312889c0 0 28.216889 23.438222 70.826667 60.928C232.334222 130.616889 271.416889 111.502222 314.197333 102.513778 318.520889 40.732444 322.389333 0 322.389333 0l75.776 0c0 0 3.754667 39.310222 7.964444 99.328 45.909333 6.200889 88.120889 23.893333 123.904 50.119111 37.546667-32.824889 62.008889-53.134222 62.008889-53.134222l53.020444 53.987556c0 0-19.911111 24.917333-52.167111 63.146667 25.770667 36.522667 43.121778 79.530667 49.208889 126.293333C700.928 343.950222 739.555556 347.761778 739.555556 347.761778l0 77.312c0 0-39.936 3.925333-100.465778 8.248889C630.272 477.013333 611.498667 516.892444 585.329778 550.513778zM369.777778 173.909333c-109.966222 0-199.168 90.851556-199.168 202.865778s89.201778 202.865778 199.168 202.865778 199.054222-90.851556 199.054222-202.865778S479.744 173.909333 369.777778 173.909333z" fill="#848D9B"></path></g></g></svg>